<svg xmlns="http://www.w3.org/2000/svg" viewBox="0 0 52 49">
<g clip-path="url(#urs_clip)">
<mask id="urs_m0" style="mask-type:luminance" maskUnits="userSpaceOnUse" x="14" y="28" width="21" height="21"><path d="M34.3989 29.9898C33.2971 30.7423 30.5334 31.3951 28.9904 33.2356C27.5914 34.9061 28.4715 37.719 27.6052 39.5935C26.8874 41.1416 25.9753 41.8375 25.0381 42.4517C24.0963 43.0682 23.7123 43.6916 24.6975 44.4464C27.1891 46.3571 25.4358 48.864 24.5649 48.8822C23.0333 48.9139 19.9382 48.8822 18.4867 48.8822C17.0351 48.8822 14.0246 46.7583 15.3915 41.8987C15.7527 40.6158 15.2658 39.2988 14.7949 38.0114C16.171 37.5059 17.7735 36.9461 18.9987 36.2298C22.7247 34.0493 25.4221 30.6471 26.4439 29.3393C27.5069 27.9793 32.2981 28.4417 34.4012 29.9921" fill="white"/></mask>
<g mask="url(#urs_m0)"><path d="M34.3984 27.977H14.0195V48.9116H34.3984V27.977Z" fill="url(#urs_g0)"/></g>
<mask id="urs_m1" style="mask-type:luminance" maskUnits="userSpaceOnUse" x="0" y="4" width="79" height="45"><path d="M75.5444 18.5614C78.9184 15.7281 78.6829 14.7013 77.6223 14.3704C76.6027 14.0531 74.9157 13.5136 73.6814 13.2348C73.2105 13.1283 74.0448 12.0041 69.8525 9.62183C69.3084 9.3113 70.6548 7.96946 69.3633 7.4096C68.2546 6.92681 65.7813 8.35252 64.5697 8.20065C56.8845 7.23734 48.1569 4.57631 40.3277 4.39498C33.7991 4.24312 27.8192 4.43805 20.8952 6.12215C6.20819 9.68983 2.94162 26.8868 1.01232 35.8807C0.751723 37.0979 -0.000340768 39.6116 0.125384 40.8197C0.408837 43.5419 2.26271 48.8821 5.62757 48.8821H11.1823C14.9724 48.8821 13.4888 44.8181 11.6944 42.6058C10.5994 41.2572 15.7359 40.448 18.6938 38.7186C22.4199 36.5381 25.1172 33.1358 26.139 31.828C27.4123 30.1983 34.0323 31.182 34.9809 33.5234C35.5707 34.9786 33.5705 36.9982 33.1042 39.7997C32.4687 43.6213 32.9396 48.9116 34.8118 48.8844C37.532 48.8436 39.7173 48.8844 40.858 48.8844C42.1312 48.8844 41.8752 45.9627 40.8786 45.0719C39.8316 44.1381 40.9083 42.6081 41.7312 40.0536C42.721 45.4595 44.6526 48.8821 46.8676 48.8821H52.4155C53.6728 48.8821 54.0111 45.659 51.2223 44.1811C48.0129 42.4789 54.85 25.6854 61.4197 22.315C66.1904 19.867 73.8368 20.0007 75.5467 18.5637" fill="white"/></mask>
<g mask="url(#urs_m1)"><path d="M78.9187 4.24084H0V48.9093H78.9187V4.24084Z" fill="url(#urs_g1)"/></g>
<mask id="urs_m2" style="mask-type:luminance" maskUnits="userSpaceOnUse" x="60" y="7" width="10" height="3"><path d="M69.8946 7.90826C69.8238 7.71333 69.666 7.5388 69.362 7.40734C68.2533 6.92454 65.78 8.35025 64.5685 8.19839C63.2861 8.03746 61.974 7.82893 60.6436 7.5932C62.8655 8.79451 65.7434 9.94596 67.4556 9.44957C67.9402 9.30904 68.3311 9.03931 68.5871 8.60185C68.8454 8.16439 69.3734 7.89466 69.8992 7.92866L69.8923 7.90599L69.8946 7.90826Z" fill="white"/></mask>
<g mask="url(#urs_m2)"><path d="M69.9015 6.92456H60.6436V9.94598H69.9015V6.92456Z" fill="url(#urs_g2)"/></g>
<mask id="urs_m3" style="mask-type:luminance" maskUnits="userSpaceOnUse" x="22" y="5" width="32" height="44"><path d="M22.7383 35.6201C24.3613 34.081 25.5362 32.5941 26.1374 31.8257C27.4107 30.196 34.0307 31.1797 34.9793 33.5212C35.5691 34.9764 33.5689 36.9959 33.1026 39.7975C32.4671 43.619 32.938 48.9093 34.8102 48.8821C37.5304 48.8413 39.7157 48.8821 40.8564 48.8821C42.1296 48.8821 41.8736 45.9604 40.877 45.0697C39.83 44.1358 40.9067 42.6058 41.7296 40.0513C42.7194 45.4572 44.651 48.8799 46.866 48.8799H52.4139C53.6712 48.8799 54.0095 45.6567 51.2207 44.1789C50.1486 43.6099 50.1989 41.3524 50.9853 38.476C49.7554 36.9755 48.8708 34.7769 50.192 31.2613C55.6531 16.7254 53.8838 13.5522 52.5877 11.2062C50.9304 8.20292 39.2654 -1.11064e-05 29.2737 9.63543C21.0833 17.5324 30.7778 24.228 22.7406 35.6201" fill="white"/></mask>
<g mask="url(#urs_m3)"><path d="M55.6531 -6.10352e-05H21.0811V48.9093H55.6531V-6.10352e-05Z" fill="url(#urs_g3)"/></g>
<mask id="urs_m4" style="mask-type:luminance" maskUnits="userSpaceOnUse" x="7" y="5" width="40" height="44"><path d="M10.0009 48.8798H11.1804C14.9705 48.8798 13.4869 44.8158 11.6925 42.6035C10.5975 41.2549 15.734 40.4457 18.6919 38.7163C22.418 36.5358 25.1153 33.1336 26.1371 31.8257C27.4104 30.196 34.0304 31.1797 34.979 33.5212C35.5688 34.9763 33.5686 36.9959 33.1023 39.7975C32.4668 43.619 32.9377 48.9093 34.8099 48.8821C37.5301 48.8413 39.7154 48.8821 40.8561 48.8821C42.1293 48.8821 41.8733 45.9604 40.8767 45.0696C39.8297 44.1358 40.9064 42.6058 41.7293 40.0513C42.7191 45.4572 44.6507 48.8798 46.8657 48.8798C41.1281 43.075 42.5797 34.5003 42.1773 27.1406C41.6882 18.201 50.1917 9.05289 41.4756 5.94761C37.1118 4.3927 31.6713 5.73001 26.8046 9.16622C16.1751 16.6756 20.9618 24.6972 16.7009 32.814C13.8572 38.2312 11.3404 37.277 8.15617 42.0505C6.48289 44.5619 13.0846 44.9087 10.0032 48.8798" fill="white"/></mask>
<g mask="url(#urs_m4)"><path d="M50.1874 4.3927H6.47852V48.9093H50.1874V4.3927Z" fill="url(#urs_g4)"/></g>
<mask id="urs_m5" style="mask-type:luminance" maskUnits="userSpaceOnUse" x="22" y="5" width="25" height="44"><path d="M22.7383 35.6201C24.3613 34.0811 25.5362 32.5942 26.1374 31.8258C27.4107 30.1961 34.0307 31.1798 34.9793 33.5212C35.5691 34.9764 33.5689 36.996 33.1026 39.7975C32.4671 43.619 32.938 48.9094 34.8102 48.8822C37.5304 48.8414 39.7157 48.8822 40.8564 48.8822C42.1296 48.8822 41.8736 45.9605 40.877 45.0697C39.83 44.1358 40.9067 42.6059 41.7296 40.0514C42.7194 45.4573 44.651 48.8799 46.866 48.8799C41.1284 43.0751 42.58 34.5004 42.1776 27.1406C41.6885 18.2011 50.192 9.05294 41.4759 5.94766C40.1798 5.48527 38.7876 5.27901 37.343 5.30621C34.6799 5.78446 31.9185 7.08551 29.276 9.63547C21.0856 17.5324 30.7801 24.228 22.7429 35.6201" fill="white"/></mask>
<g mask="url(#urs_m5)"><path d="M50.1898 5.27899H21.0811V48.9093H50.1898V5.27899Z" fill="url(#urs_g5)"/></g>
<mask id="urs_m6" style="mask-type:luminance" maskUnits="userSpaceOnUse" x="58" y="7" width="21" height="16"><path d="M75.5453 18.5614C78.9193 15.7281 78.6838 14.7013 77.6232 14.3704C76.6036 14.0531 74.9166 13.5136 73.6822 13.2348C73.2113 13.1283 74.0457 12.004 69.8533 9.62182C69.4419 9.38835 70.1117 8.5633 69.9036 7.93091C69.3779 7.89464 68.8498 8.16437 68.5915 8.6041C68.3332 9.04156 67.9423 9.31355 67.46 9.45182C65.7456 9.94594 62.8676 8.7945 60.648 7.59545C59.9142 7.46625 59.1736 7.32799 58.4307 7.18292C59.8891 7.95358 61.192 9.05969 61.951 10.737C63.6974 14.5948 61.3452 19.0261 60.616 22.7932C60.8834 22.6141 61.1532 22.4509 61.4206 22.3127C66.1913 19.8647 73.8377 19.9984 75.5475 18.5614" fill="white"/></mask>
<g mask="url(#urs_m6)"><path d="M78.9189 7.18292H58.4258V22.7932H78.9189V7.18292Z" fill="url(#urs_g6)"/></g>
<mask id="urs_m7" style="mask-type:luminance" maskUnits="userSpaceOnUse" x="0" y="18" width="59" height="31"><path d="M2.50044 29.3279C1.88325 31.7396 1.41921 33.9926 1.01232 35.8808C0.751723 37.0979 -0.000340768 39.6116 0.125384 40.8197C0.408837 43.542 2.26271 48.8821 5.62757 48.8821H11.1823C14.9724 48.8821 13.4888 44.8181 11.6944 42.6058C10.5994 41.2572 15.7359 40.448 18.6938 38.7186C22.4199 36.5381 25.1172 33.1359 26.139 31.828C27.4123 30.1983 34.0323 31.182 34.9809 33.5235C35.5707 34.9786 33.5705 36.9982 33.1042 39.7998C32.4687 43.6213 32.9396 48.9116 34.8118 48.8844C37.532 48.8436 39.7173 48.8844 40.858 48.8844C42.1312 48.8844 41.8752 45.9627 40.8786 45.0719C39.8316 44.1381 40.9083 42.6081 41.7312 40.0536C42.721 45.4595 44.6526 48.8821 46.8676 48.8821H52.4155C53.6728 48.8821 54.0111 45.659 51.2223 44.1811C48.5546 42.7668 52.8293 30.9259 58.1212 25.0327C56.0501 24.9737 53.7482 24.6609 51.4143 23.8631C41.8204 20.5833 36.8531 18.124 26.1162 18.473C20.3877 18.6589 14.7849 20.8462 9.19816 25.8418C6.28134 28.4485 4.15773 29.3053 2.5073 29.3302" fill="white"/></mask>
<g mask="url(#urs_m7)"><path d="M58.1147 18.1217H0V48.9093H58.1147V18.1217Z" fill="url(#urs_g7)"/></g>
<mask id="urs_m8" style="mask-type:luminance" maskUnits="userSpaceOnUse" x="25" y="21" width="34" height="28"><path d="M25.7275 32.3448C25.8853 32.1499 26.0224 31.9753 26.1367 31.8258C27.41 30.196 34.03 31.1798 34.9786 33.5212C35.5684 34.9764 33.5682 36.9959 33.1019 39.7975C32.4664 43.619 32.9373 48.9093 34.8095 48.8821C37.5297 48.8413 39.715 48.8821 40.8557 48.8821C42.1289 48.8821 41.8729 45.9605 40.8763 45.0697C39.8293 44.1358 40.906 42.6058 41.7289 40.0513C42.7187 45.4573 44.6503 48.8799 46.8653 48.8799H52.4132C53.6705 48.8799 54.0088 45.6567 51.22 44.1789C48.5523 42.7645 52.827 30.9236 58.1189 25.0304C56.0478 24.9715 53.7459 24.6587 51.412 23.8608C48.7649 22.9564 46.4699 22.1132 44.3097 21.3766C35.5981 22.1019 28.4158 26.4765 25.7321 32.3448" fill="white"/></mask>
<g mask="url(#urs_m8)"><path d="M58.1166 21.3766H25.7275V48.9093H58.1166V21.3766Z" fill="url(#urs_g8)"/></g>
<mask id="urs_m9" style="mask-type:luminance" maskUnits="userSpaceOnUse" x="22" y="18" width="32" height="31"><path d="M22.7383 35.6201C24.3613 34.0811 25.5362 32.5941 26.1374 31.8258C27.4107 30.1961 34.0307 31.1798 34.9793 33.5212C35.5691 34.9764 33.5689 36.9959 33.1026 39.7975C32.4671 43.619 32.938 48.9094 34.8102 48.8822C37.5304 48.8414 39.7157 48.8822 40.8564 48.8822C42.1296 48.8822 41.8736 45.9605 40.877 45.0697C39.83 44.1358 40.9067 42.6059 41.7296 40.0514C42.7194 45.4573 44.651 48.8799 46.866 48.8799H52.4139C53.6712 48.8799 54.0095 45.6567 51.2207 44.1789C50.1486 43.61 50.1989 41.3524 50.9853 38.4761C49.7554 36.9755 48.8708 34.7769 50.192 31.2614C51.2161 28.5369 51.9865 26.2091 52.5534 24.2144C52.1739 24.1079 51.7922 23.9923 51.4104 23.8608C41.8165 20.581 36.8492 18.1217 26.1123 18.4708C25.9866 18.4753 25.8585 18.4798 25.7328 18.4866C25.902 23.3327 27.7101 28.5777 22.7406 35.6201" fill="white"/></mask>
<g mask="url(#urs_m9)"><path d="M54.0072 18.1217H22.7383V48.9093H54.0072V18.1217Z" fill="url(#urs_g9)"/></g>
<mask id="urs_m10" style="mask-type:luminance" maskUnits="userSpaceOnUse" x="7" y="18" width="40" height="31"><path d="M10.0009 48.8799H11.1804C14.9705 48.8799 13.4869 44.8158 11.6925 42.6036C10.5975 41.2549 15.734 40.4457 18.6919 38.7163C22.418 36.5358 25.1153 33.1336 26.1371 31.8257C27.4104 30.196 34.0304 31.1798 34.979 33.5212C35.5688 34.9764 33.5686 36.9959 33.1023 39.7975C32.4668 43.619 32.9377 48.9093 34.8099 48.8821C37.5301 48.8413 39.7154 48.8821 40.8561 48.8821C42.1293 48.8821 41.8733 45.9604 40.8767 45.0697C39.8297 44.1358 40.9064 42.6058 41.7293 40.0513C42.7191 45.4573 44.6507 48.8799 46.8657 48.8799C41.1281 43.075 42.5797 34.5004 42.1773 27.1406C42.0631 25.0531 42.4379 22.9564 42.9706 20.9255C37.8616 19.2527 33.2692 18.2373 26.112 18.4685C23.9198 18.5388 21.7459 18.9037 19.5834 19.6063C18.6531 23.9333 19.0371 28.3601 16.7009 32.814C13.8572 38.2312 11.3404 37.277 8.15617 42.0505C6.48289 44.5619 13.0846 44.9087 10.0032 48.8799" fill="white"/></mask>
<g mask="url(#urs_m10)"><path d="M46.8637 18.2396H6.47852V48.9093H46.8637V18.2396Z" fill="url(#urs_g10)"/></g>
<mask id="urs_m11" style="mask-type:luminance" maskUnits="userSpaceOnUse" x="0" y="4" width="53" height="45"><path d="M0 4.24084V48.9093H52.4155C53.6728 48.8821 54.0111 45.659 51.2223 44.1811C48.0129 42.4789 54.85 25.6854 61.4197 22.315C61.4197 22.315 50 18 40.3277 4.39498C33.7991 4.24312 27.8192 4.43805 20.8952 6.12215C10 8.5 3 18 1.01232 35.8807C0.751723 37.0979 0 39.6116 0 40.8197V4.24084Z" fill="white"/></mask>
<g mask="url(#urs_m11)"><path d="M52.4155 4.24084H0V48.9093H52.4155V4.24084Z" fill="url(#urs_g11)"/></g>
</g>
<defs>
<linearGradient id="urs_g0" x1="38.7028" y1="34.3304" x2="11.5653" y2="42.163" gradientUnits="userSpaceOnUse"><stop stop-color="#C1262D"/><stop offset="0.6" stop-color="#30348A"/><stop offset="1" stop-color="#0C0224"/></linearGradient>
<linearGradient id="urs_g1" x1="10.2614" y1="30.4454" x2="66.8321" y2="22.8169" gradientUnits="userSpaceOnUse"><stop stop-color="#5992CD"/><stop offset="0.37" stop-color="#4E2482"/><stop offset="0.63" stop-color="#CA1574"/><stop offset="1" stop-color="#DA5845"/></linearGradient>
<linearGradient id="urs_g2" x1="68.8317" y1="8.18934" x2="55.8259" y2="9.10449" gradientUnits="userSpaceOnUse"><stop stop-color="#C1262D"/><stop offset="1" stop-color="#2B348B"/></linearGradient>
<linearGradient id="urs_g3" x1="54.0073" y1="13.5974" x2="38.6045" y2="24.4729" gradientUnits="userSpaceOnUse"><stop stop-color="#C1262D"/><stop offset="1" stop-color="#2B348B"/></linearGradient>
<linearGradient id="urs_g4" x1="75.6021" y1="13.636" x2="13.4648" y2="31.0386" gradientUnits="userSpaceOnUse"><stop stop-color="#C1262D"/><stop offset="1" stop-color="#2B348B"/></linearGradient>
<linearGradient id="urs_g5" x1="69.9721" y1="20.0144" x2="27.6624" y2="28.886" gradientUnits="userSpaceOnUse"><stop stop-color="#C1262D"/><stop offset="1" stop-color="#2B348B"/></linearGradient>
<linearGradient id="urs_g6" x1="77.2205" y1="11.0974" x2="62.103" y2="18.0918" gradientUnits="userSpaceOnUse"><stop stop-color="#ED7952"/><stop offset="1" stop-color="#B2092C"/></linearGradient>
<linearGradient id="urs_g7" x1="24.4158" y1="39.4008" x2="3.58562" y2="66.2571" gradientUnits="userSpaceOnUse"><stop stop-color="#362483"/><stop offset="1" stop-color="#060019"/></linearGradient>
<linearGradient id="urs_g8" x1="65.4818" y1="18.9196" x2="34.4902" y2="40.6237" gradientUnits="userSpaceOnUse"><stop stop-color="#ED7952"/><stop offset="1" stop-color="#B2092C"/></linearGradient>
<linearGradient id="urs_g9" x1="42.0405" y1="32.2405" x2="52.8007" y2="28.4369" gradientUnits="userSpaceOnUse"><stop stop-color="#6F356F"/><stop offset="1" stop-color="#E62630"/></linearGradient>
<linearGradient id="urs_g10" x1="64.6023" y1="25.7693" x2="-7.1018" y2="40.7735" gradientUnits="userSpaceOnUse"><stop stop-color="#392483"/><stop offset="1" stop-color="#4B56A2"/></linearGradient>
<linearGradient id="urs_g11" x1="51.4287" y1="27.3922" x2="21.7493" y2="38.6164" gradientUnits="userSpaceOnUse"><stop stop-color="#C1262D"/><stop offset="0.56" stop-color="#393487"/><stop offset="1" stop-color="#130834"/></linearGradient>
<clipPath id="urs_clip"><rect width="52" height="49" fill="white"/></clipPath>
</defs>
</svg>
